<?xml version="1.0" standalone="no"?>
<!DOCTYPE svg PUBLIC "-//W3C//DTD SVG 20010904//EN"
 "http://www.w3.org/TR/2001/REC-SVG-20010904/DTD/svg10.dtd">
<svg version="1.0" xmlns="http://www.w3.org/2000/svg"
 width="310.000000pt" height="310.000000pt" viewBox="0 0 310.000000 310.000000"
 preserveAspectRatio="xMidYMid meet">
<metadata>
Created by potrace 1.11, written by Peter Selinger 2001-2013
</metadata>
<g transform="translate(0.000000,310.000000) scale(0.100000,-0.100000)"
fill="#000000" stroke="none">
<path d="M512 3088 c-107 -12 -175 -38 -267 -103 -128 -91 -208 -219 -235
-377 -8 -43 -10 -385 -8 -1103 l3 -1040 22 -60 c36 -100 73 -156 152 -235 88
-87 173 -134 283 -155 110 -21 2071 -21 2173 0 179 37 355 184 417 347 40 105
40 114 40 1188 0 1157 3 1105 -64 1234 -42 79 -164 202 -243 243 -131 68 -81
65 -1200 67 -555 0 -1038 -2 -1073 -6z m487 -527 c18 -18 61 -89 129 -211 37
-68 91 -162 121 -212 17 -27 21 -46 16 -67 -6 -28 -65 -93 -129 -143 -64 -50
-108 -93 -122 -120 -13 -26 -13 -33 4 -71 56 -126 202 -328 320 -442 107 -103
321 -250 412 -281 50 -17 73 -2 171 113 97 114 115 130 151 138 26 6 76 -12
108 -40 8 -8 40 -27 70 -43 115 -60 247 -136 288 -164 40 -28 42 -31 42 -80 0
-55 -23 -156 -47 -201 -58 -112 -285 -221 -458 -220 -98 1 -163 17 -336 83
-285 109 -490 247 -720 487 -215 224 -325 398 -427 673 -62 169 -75 225 -75
320 -1 163 97 373 206 445 75 49 241 71 276 36z"/>
</g>
</svg>
